<svg width="100" height="100" viewBox="0 0 100 100" fill="none" xmlns="http://www.w3.org/2000/svg">
<g clip-path="url(#clip0_28_11)">
<g filter="url(#filter0_d_28_11)">
<path d="M50 76C66.5685 76 80 62.5685 80 46C80 29.4315 66.5685 16 50 16C33.4315 16 20 29.4315 20 46C20 62.5685 33.4315 76 50 76Z" fill="#857752" fill-opacity="0.1"/>
</g>
<path d="M61.25 49.75V54.75C61.25 55.413 60.9866 56.0489 60.5178 56.5178C60.0489 56.9866 59.413 57.25 58.75 57.25H41.25C40.587 57.25 39.9511 56.9866 39.4822 56.5178C39.0134 56.0489 38.75 55.413 38.75 54.75V49.75" stroke="#857752" stroke-width="2" stroke-linecap="round" stroke-linejoin="round"/>
<path d="M43.75 43.5L50 49.75L56.25 43.5" stroke="#857752" stroke-width="2" stroke-linecap="round" stroke-linejoin="round"/>
<path d="M50 49.75V34.75" stroke="#857752" stroke-width="2" stroke-linecap="round" stroke-linejoin="round"/>
</g>
<defs>
<filter id="filter0_d_28_11" x="0" y="0" width="100" height="100" filterUnits="userSpaceOnUse" color-interpolation-filters="sRGB">
<feFlood flood-opacity="0" result="BackgroundImageFix"/>
<feColorMatrix in="SourceAlpha" type="matrix" values="0 0 0 0 0 0 0 0 0 0 0 0 0 0 0 0 0 0 127 0" result="hardAlpha"/>
<feOffset dy="4"/>
<feGaussianBlur stdDeviation="10"/>
<feColorMatrix type="matrix" values="0 0 0 0 0 0 0 0 0 0 0 0 0 0 0 0 0 0 0.05 0"/>
<feBlend mode="normal" in2="BackgroundImageFix" result="effect1_dropShadow_28_11"/>
<feBlend mode="normal" in="SourceGraphic" in2="effect1_dropShadow_28_11" result="shape"/>
</filter>
<clipPath id="clip0_28_11">
<rect width="100" height="100" fill="white"/>
</clipPath>
</defs>
</svg>
