<svg width="197" height="146" viewBox="0 0 197 146" fill="none" xmlns="http://www.w3.org/2000/svg">
<rect x="3" y="2" width="7" height="132" rx="3.5" fill="#857752"/>
<rect x="150" y="2" width="7" height="132" rx="3.5" fill="#857752"/>
<rect x="57" y="35" width="7" height="99" rx="3.5" fill="#ABABAB"/>
<rect x="118" y="35" width="7" height="99" rx="3.5" fill="#ABABAB"/>
<rect x="182" y="35" width="7" height="99" rx="3.5" fill="#ABABAB"/>
<rect x="85" y="21" width="7" height="113" rx="3.5" fill="#ABABAB"/>
<rect x="29" y="64" width="7" height="70" rx="3.5" fill="#857752"/>
<circle cx="89" cy="21" r="6" fill="white"/>
<circle cx="89" cy="21" r="4" fill="#857752"/>
<path d="M3.88636 140.636C3.85227 140.348 3.71402 140.125 3.47159 139.966C3.22917 139.807 2.93182 139.727 2.57955 139.727C2.32197 139.727 2.09659 139.769 1.90341 139.852C1.71212 139.936 1.5625 140.05 1.45455 140.196C1.34848 140.342 1.29545 140.508 1.29545 140.693C1.29545 140.848 1.33239 140.982 1.40625 141.094C1.48201 141.204 1.5786 141.295 1.69602 141.369C1.81345 141.441 1.93655 141.501 2.06534 141.548C2.19413 141.594 2.3125 141.631 2.42045 141.659L3.01136 141.818C3.16288 141.858 3.33144 141.913 3.51705 141.983C3.70455 142.053 3.88352 142.149 4.05398 142.27C4.22633 142.389 4.36837 142.543 4.48011 142.73C4.59186 142.918 4.64773 143.148 4.64773 143.42C4.64773 143.735 4.56534 144.019 4.40057 144.273C4.23769 144.527 3.99905 144.728 3.68466 144.878C3.37216 145.027 2.99242 145.102 2.54545 145.102C2.12879 145.102 1.76799 145.035 1.46307 144.901C1.16004 144.766 0.921402 144.579 0.747159 144.338C0.574811 144.098 0.477273 143.818 0.454545 143.5H1.18182C1.20076 143.72 1.27462 143.902 1.40341 144.045C1.53409 144.187 1.69886 144.294 1.89773 144.364C2.09848 144.432 2.31439 144.466 2.54545 144.466C2.81439 144.466 3.05587 144.422 3.26989 144.335C3.4839 144.246 3.65341 144.123 3.77841 143.966C3.90341 143.807 3.96591 143.621 3.96591 143.409C3.96591 143.216 3.91193 143.059 3.80398 142.938C3.69602 142.816 3.55398 142.718 3.37784 142.642C3.2017 142.566 3.01136 142.5 2.80682 142.443L2.09091 142.239C1.63636 142.108 1.27652 141.921 1.01136 141.679C0.746212 141.437 0.613636 141.119 0.613636 140.727C0.613636 140.402 0.701705 140.117 0.877841 139.875C1.05587 139.631 1.29451 139.441 1.59375 139.307C1.89489 139.17 2.23106 139.102 2.60227 139.102C2.97727 139.102 3.31061 139.17 3.60227 139.304C3.89394 139.437 4.125 139.618 4.29545 139.849C4.4678 140.08 4.55871 140.343 4.56818 140.636H3.88636ZM6.99929 145.102C6.72277 145.102 6.47183 145.05 6.24645 144.946C6.02107 144.84 5.84209 144.688 5.70952 144.489C5.57694 144.288 5.51065 144.045 5.51065 143.761C5.51065 143.511 5.5599 143.309 5.65838 143.153C5.75687 142.996 5.88849 142.873 6.05327 142.784C6.21804 142.695 6.39986 142.629 6.59872 142.585C6.79948 142.54 7.00118 142.504 7.20384 142.477C7.46899 142.443 7.68395 142.418 7.84872 142.401C8.01539 142.382 8.1366 142.35 8.21236 142.307C8.29001 142.263 8.32884 142.187 8.32884 142.08V142.057C8.32884 141.777 8.25213 141.559 8.09872 141.403C7.94721 141.248 7.71709 141.17 7.40838 141.17C7.0883 141.17 6.83736 141.241 6.65554 141.381C6.47372 141.521 6.34588 141.67 6.27202 141.83L5.63565 141.602C5.74929 141.337 5.9008 141.131 6.0902 140.983C6.28149 140.833 6.48982 140.729 6.7152 140.67C6.94247 140.61 7.16596 140.58 7.38565 140.58C7.5258 140.58 7.68679 140.597 7.86861 140.631C8.05232 140.663 8.2294 140.73 8.39986 140.832C8.57221 140.935 8.7152 141.089 8.82884 141.295C8.94247 141.502 8.99929 141.778 8.99929 142.125V145H8.32884V144.409H8.29474C8.24929 144.504 8.17353 144.605 8.06747 144.713C7.96141 144.821 7.82031 144.913 7.64418 144.989C7.46804 145.064 7.25308 145.102 6.99929 145.102ZM7.10156 144.5C7.36671 144.5 7.5902 144.448 7.77202 144.344C7.95573 144.24 8.09399 144.105 8.18679 143.94C8.28149 143.776 8.32884 143.602 8.32884 143.42V142.807C8.30043 142.841 8.23793 142.872 8.14134 142.901C8.04664 142.927 7.93679 142.951 7.81179 142.972C7.68868 142.991 7.56842 143.008 7.45099 143.023C7.33546 143.036 7.24171 143.047 7.16974 143.057C6.9955 143.08 6.83262 143.116 6.68111 143.168C6.53149 143.217 6.41027 143.292 6.31747 143.392C6.22656 143.491 6.18111 143.625 6.18111 143.795C6.18111 144.028 6.26728 144.205 6.43963 144.324C6.61387 144.441 6.83452 144.5 7.10156 144.5ZM12.1207 140.636V141.205H9.85938V140.636H12.1207ZM10.5185 139.591H11.1889V143.75C11.1889 143.939 11.2164 144.081 11.2713 144.176C11.3281 144.269 11.4001 144.331 11.4872 144.364C11.5762 144.394 11.67 144.409 11.7685 144.409C11.8423 144.409 11.9029 144.405 11.9503 144.398C11.9976 144.388 12.0355 144.381 12.0639 144.375L12.2003 144.977C12.1548 144.994 12.0914 145.011 12.0099 145.028C11.9285 145.047 11.8253 145.057 11.7003 145.057C11.5109 145.057 11.3253 145.016 11.1435 144.935C10.9635 144.853 10.8139 144.729 10.6946 144.562C10.5772 144.396 10.5185 144.186 10.5185 143.932V139.591Z" fill="#7D7A7A"/>
<path d="M27.8864 140.636C27.8523 140.348 27.714 140.125 27.4716 139.966C27.2292 139.807 26.9318 139.727 26.5795 139.727C26.322 139.727 26.0966 139.769 25.9034 139.852C25.7121 139.936 25.5625 140.05 25.4545 140.196C25.3485 140.342 25.2955 140.508 25.2955 140.693C25.2955 140.848 25.3324 140.982 25.4062 141.094C25.482 141.204 25.5786 141.295 25.696 141.369C25.8134 141.441 25.9366 141.501 26.0653 141.548C26.1941 141.594 26.3125 141.631 26.4205 141.659L27.0114 141.818C27.1629 141.858 27.3314 141.913 27.517 141.983C27.7045 142.053 27.8835 142.149 28.054 142.27C28.2263 142.389 28.3684 142.543 28.4801 142.73C28.5919 142.918 28.6477 143.148 28.6477 143.42C28.6477 143.735 28.5653 144.019 28.4006 144.273C28.2377 144.527 27.9991 144.728 27.6847 144.878C27.3722 145.027 26.9924 145.102 26.5455 145.102C26.1288 145.102 25.768 145.035 25.4631 144.901C25.16 144.766 24.9214 144.579 24.7472 144.338C24.5748 144.098 24.4773 143.818 24.4545 143.5H25.1818C25.2008 143.72 25.2746 143.902 25.4034 144.045C25.5341 144.187 25.6989 144.294 25.8977 144.364C26.0985 144.432 26.3144 144.466 26.5455 144.466C26.8144 144.466 27.0559 144.422 27.2699 144.335C27.4839 144.246 27.6534 144.123 27.7784 143.966C27.9034 143.807 27.9659 143.621 27.9659 143.409C27.9659 143.216 27.9119 143.059 27.804 142.938C27.696 142.816 27.554 142.718 27.3778 142.642C27.2017 142.566 27.0114 142.5 26.8068 142.443L26.0909 142.239C25.6364 142.108 25.2765 141.921 25.0114 141.679C24.7462 141.437 24.6136 141.119 24.6136 140.727C24.6136 140.402 24.7017 140.117 24.8778 139.875C25.0559 139.631 25.2945 139.441 25.5938 139.307C25.8949 139.17 26.2311 139.102 26.6023 139.102C26.9773 139.102 27.3106 139.17 27.6023 139.304C27.8939 139.437 28.125 139.618 28.2955 139.849C28.4678 140.08 28.5587 140.343 28.5682 140.636H27.8864ZM32.4652 143.216V140.636H33.1357V145H32.4652V144.261H32.4197C32.3175 144.483 32.1584 144.671 31.9425 144.827C31.7266 144.98 31.4538 145.057 31.1243 145.057C30.8516 145.057 30.6091 144.997 30.397 144.878C30.1849 144.757 30.0182 144.575 29.897 144.332C29.7758 144.088 29.7152 143.78 29.7152 143.409V140.636H30.3857V143.364C30.3857 143.682 30.4747 143.936 30.6527 144.125C30.8326 144.314 31.0618 144.409 31.3402 144.409C31.5069 144.409 31.6764 144.366 31.8487 144.281C32.023 144.196 32.1688 144.065 32.2862 143.889C32.4055 143.713 32.4652 143.489 32.4652 143.216ZM35.0341 142.375V145H34.3636V140.636H35.0114V141.318H35.0682C35.1705 141.097 35.3258 140.919 35.5341 140.784C35.7424 140.648 36.0114 140.58 36.3409 140.58C36.6364 140.58 36.8949 140.64 37.1165 140.761C37.3381 140.881 37.5104 141.062 37.6335 141.307C37.7566 141.549 37.8182 141.856 37.8182 142.227V145H37.1477V142.273C37.1477 141.93 37.0587 141.663 36.8807 141.472C36.7027 141.278 36.4583 141.182 36.1477 141.182C35.9337 141.182 35.7424 141.228 35.5739 141.321C35.4072 141.414 35.2756 141.549 35.179 141.727C35.0824 141.905 35.0341 142.121 35.0341 142.375Z" fill="#7D7A7A"/>
<path d="M52.7045 139.182H53.5455L55.5227 144.011H55.5909L57.5682 139.182H58.4091V145H57.75V140.58H57.6932L55.875 145H55.2386L53.4205 140.58H53.3636V145H52.7045V139.182ZM61.5036 145.091C61.1096 145.091 60.764 144.997 60.4666 144.81C60.1712 144.622 59.9401 144.36 59.7734 144.023C59.6087 143.686 59.5263 143.292 59.5263 142.841C59.5263 142.386 59.6087 141.99 59.7734 141.651C59.9401 141.312 60.1712 141.048 60.4666 140.861C60.764 140.673 61.1096 140.58 61.5036 140.58C61.8975 140.58 62.2422 140.673 62.5376 140.861C62.835 141.048 63.0661 141.312 63.2308 141.651C63.3975 141.99 63.4808 142.386 63.4808 142.841C63.4808 143.292 63.3975 143.686 63.2308 144.023C63.0661 144.36 62.835 144.622 62.5376 144.81C62.2422 144.997 61.8975 145.091 61.5036 145.091ZM61.5036 144.489C61.8028 144.489 62.049 144.412 62.2422 144.259C62.4354 144.105 62.5784 143.903 62.6712 143.653C62.764 143.403 62.8104 143.133 62.8104 142.841C62.8104 142.549 62.764 142.277 62.6712 142.026C62.5784 141.774 62.4354 141.57 62.2422 141.415C62.049 141.259 61.8028 141.182 61.5036 141.182C61.2043 141.182 60.9581 141.259 60.7649 141.415C60.5717 141.57 60.4287 141.774 60.3359 142.026C60.2431 142.277 60.1967 142.549 60.1967 142.841C60.1967 143.133 60.2431 143.403 60.3359 143.653C60.4287 143.903 60.5717 144.105 60.7649 144.259C60.9581 144.412 61.2043 144.489 61.5036 144.489ZM65.1747 142.375V145H64.5043V140.636H65.152V141.318H65.2088C65.3111 141.097 65.4664 140.919 65.6747 140.784C65.883 140.648 66.152 140.58 66.4815 140.58C66.777 140.58 67.0355 140.64 67.2571 140.761C67.4787 140.881 67.651 141.062 67.7741 141.307C67.8973 141.549 67.9588 141.856 67.9588 142.227V145H67.2884V142.273C67.2884 141.93 67.1993 141.663 67.0213 141.472C66.8433 141.278 66.599 141.182 66.2884 141.182C66.0743 141.182 65.883 141.228 65.7145 141.321C65.5478 141.414 65.4162 141.549 65.3196 141.727C65.223 141.905 65.1747 142.121 65.1747 142.375Z" fill="#7D7A7A"/>
<path d="M81.3864 139.807V139.182H85.75V139.807H83.9205V145H83.2159V139.807H81.3864ZM88.9027 143.216V140.636H89.5732V145H88.9027V144.261H88.8572C88.755 144.483 88.5959 144.671 88.38 144.827C88.1641 144.98 87.8913 145.057 87.5618 145.057C87.2891 145.057 87.0466 144.997 86.8345 144.878C86.6224 144.757 86.4557 144.575 86.3345 144.332C86.2133 144.088 86.1527 143.78 86.1527 143.409V140.636H86.8232V143.364C86.8232 143.682 86.9122 143.936 87.0902 144.125C87.2701 144.314 87.4993 144.409 87.7777 144.409C87.9444 144.409 88.1139 144.366 88.2862 144.281C88.4605 144.196 88.6063 144.065 88.7237 143.889C88.843 143.713 88.9027 143.489 88.9027 143.216ZM92.6307 145.091C92.2102 145.091 91.8475 144.998 91.5426 144.812C91.2396 144.625 91.0057 144.364 90.8409 144.028C90.678 143.691 90.5966 143.299 90.5966 142.852C90.5966 142.405 90.678 142.011 90.8409 141.67C91.0057 141.328 91.2348 141.061 91.5284 140.869C91.8239 140.676 92.1686 140.58 92.5625 140.58C92.7898 140.58 93.0142 140.617 93.2358 140.693C93.4574 140.769 93.6591 140.892 93.8409 141.062C94.0227 141.231 94.1676 141.455 94.2756 141.733C94.3835 142.011 94.4375 142.354 94.4375 142.761V143.045H91.0739V142.466H93.7557C93.7557 142.22 93.7064 142 93.608 141.807C93.5114 141.614 93.3731 141.461 93.1932 141.349C93.0152 141.238 92.8049 141.182 92.5625 141.182C92.2955 141.182 92.0644 141.248 91.8693 141.381C91.6761 141.511 91.5275 141.682 91.4233 141.892C91.3191 142.102 91.267 142.328 91.267 142.568V142.955C91.267 143.284 91.3239 143.563 91.4375 143.793C91.553 144.02 91.7131 144.193 91.9176 144.312C92.1222 144.43 92.3598 144.489 92.6307 144.489C92.8068 144.489 92.9659 144.464 93.108 144.415C93.2519 144.364 93.3759 144.288 93.4801 144.188C93.5843 144.085 93.6648 143.958 93.7216 143.807L94.3693 143.989C94.3011 144.208 94.1866 144.402 94.0256 144.568C93.8646 144.733 93.6657 144.862 93.429 144.955C93.1922 145.045 92.9261 145.091 92.6307 145.091Z" fill="#7D7A7A"/>
<path d="M115.761 145L114.17 139.182H114.886L116.102 143.92H116.159L117.398 139.182H118.193L119.432 143.92H119.489L120.705 139.182H121.42L119.83 145H119.102L117.818 140.364H117.773L116.489 145H115.761ZM123.631 145.091C123.21 145.091 122.848 144.998 122.543 144.812C122.24 144.625 122.006 144.364 121.841 144.028C121.678 143.691 121.597 143.299 121.597 142.852C121.597 142.405 121.678 142.011 121.841 141.67C122.006 141.328 122.235 141.061 122.528 140.869C122.824 140.676 123.169 140.58 123.562 140.58C123.79 140.58 124.014 140.617 124.236 140.693C124.457 140.769 124.659 140.892 124.841 141.062C125.023 141.231 125.168 141.455 125.276 141.733C125.384 142.011 125.438 142.354 125.438 142.761V143.045H122.074V142.466H124.756C124.756 142.22 124.706 142 124.608 141.807C124.511 141.614 124.373 141.461 124.193 141.349C124.015 141.238 123.805 141.182 123.562 141.182C123.295 141.182 123.064 141.248 122.869 141.381C122.676 141.511 122.527 141.682 122.423 141.892C122.319 142.102 122.267 142.328 122.267 142.568V142.955C122.267 143.284 122.324 143.563 122.438 143.793C122.553 144.02 122.713 144.193 122.918 144.312C123.122 144.43 123.36 144.489 123.631 144.489C123.807 144.489 123.966 144.464 124.108 144.415C124.252 144.364 124.376 144.288 124.48 144.188C124.584 144.085 124.665 143.958 124.722 143.807L125.369 143.989C125.301 144.208 125.187 144.402 125.026 144.568C124.865 144.733 124.666 144.862 124.429 144.955C124.192 145.045 123.926 145.091 123.631 145.091ZM128.105 145.091C127.741 145.091 127.42 144.999 127.142 144.815C126.864 144.63 126.646 144.368 126.489 144.031C126.331 143.692 126.253 143.292 126.253 142.83C126.253 142.371 126.331 141.973 126.489 141.636C126.646 141.299 126.865 141.039 127.145 140.855C127.425 140.671 127.749 140.58 128.116 140.58C128.401 140.58 128.625 140.627 128.79 140.722C128.956 140.814 129.083 140.92 129.17 141.04C129.259 141.157 129.329 141.254 129.378 141.33H129.435V139.182H130.105V145H129.457V144.33H129.378C129.329 144.409 129.259 144.509 129.168 144.631C129.077 144.75 128.947 144.857 128.778 144.952C128.61 145.045 128.385 145.091 128.105 145.091ZM128.196 144.489C128.465 144.489 128.692 144.419 128.878 144.278C129.063 144.136 129.205 143.94 129.301 143.69C129.398 143.438 129.446 143.148 129.446 142.818C129.446 142.492 129.399 142.207 129.304 141.963C129.209 141.717 129.069 141.526 128.884 141.389C128.698 141.251 128.469 141.182 128.196 141.182C127.912 141.182 127.675 141.255 127.486 141.401C127.298 141.545 127.157 141.741 127.062 141.989C126.97 142.235 126.923 142.511 126.923 142.818C126.923 143.129 126.971 143.411 127.065 143.665C127.162 143.917 127.304 144.117 127.491 144.267C127.681 144.415 127.916 144.489 128.196 144.489Z" fill="#7D7A7A"/>
<path d="M147.386 139.807V139.182H151.75V139.807H149.92V145H149.216V139.807H147.386ZM153.417 142.375V145H152.746V139.182H153.417V141.318H153.474C153.576 141.093 153.729 140.914 153.934 140.781C154.14 140.647 154.415 140.58 154.758 140.58C155.055 140.58 155.316 140.639 155.539 140.759C155.763 140.876 155.936 141.057 156.059 141.301C156.184 141.544 156.246 141.852 156.246 142.227V145H155.576V142.273C155.576 141.926 155.486 141.658 155.306 141.469C155.128 141.277 154.881 141.182 154.565 141.182C154.345 141.182 154.148 141.228 153.974 141.321C153.801 141.414 153.665 141.549 153.565 141.727C153.466 141.905 153.417 142.121 153.417 142.375ZM160.223 143.216V140.636H160.893V145H160.223V144.261H160.178C160.075 144.483 159.916 144.671 159.7 144.827C159.484 144.98 159.212 145.057 158.882 145.057C158.609 145.057 158.367 144.997 158.155 144.878C157.943 144.757 157.776 144.575 157.655 144.332C157.534 144.088 157.473 143.78 157.473 143.409V140.636H158.143V143.364C158.143 143.682 158.232 143.936 158.411 144.125C158.59 144.314 158.82 144.409 159.098 144.409C159.265 144.409 159.434 144.366 159.607 144.281C159.781 144.196 159.927 144.065 160.044 143.889C160.163 143.713 160.223 143.489 160.223 143.216Z" fill="#7D7A7A"/>
<path d="M180.705 145V139.182H184.193V139.807H181.409V141.773H183.932V142.398H181.409V145H180.705ZM185.262 145V140.636H185.91V141.295H185.955C186.035 141.08 186.179 140.904 186.387 140.77C186.595 140.635 186.83 140.568 187.092 140.568C187.141 140.568 187.202 140.569 187.276 140.571C187.35 140.573 187.406 140.576 187.444 140.58V141.261C187.421 141.256 187.369 141.247 187.288 141.236C187.208 141.223 187.124 141.216 187.035 141.216C186.823 141.216 186.633 141.26 186.467 141.349C186.302 141.437 186.171 141.558 186.075 141.713C185.98 141.866 185.933 142.042 185.933 142.239V145H185.262ZM188.239 145V140.636H188.909V145H188.239ZM188.58 139.909C188.449 139.909 188.336 139.865 188.241 139.776C188.149 139.687 188.102 139.58 188.102 139.455C188.102 139.33 188.149 139.223 188.241 139.134C188.336 139.045 188.449 139 188.58 139C188.71 139 188.822 139.045 188.915 139.134C189.009 139.223 189.057 139.33 189.057 139.455C189.057 139.58 189.009 139.687 188.915 139.776C188.822 139.865 188.71 139.909 188.58 139.909Z" fill="#7D7A7A"/>
<rect x="68" width="42" height="13" rx="5" fill="white"/>
<path d="M72.6832 8.30114V5.35227H73.3523V8.30114H72.6832ZM71.5433 7.16122V6.49219H74.4922V7.16122H71.5433ZM75.4675 9V4.63636H77.1039C77.4391 4.63636 77.7203 4.6946 77.9476 4.81108C78.1763 4.92756 78.3489 5.09091 78.4654 5.30114C78.5833 5.50994 78.6422 5.75355 78.6422 6.03196C78.6422 6.31179 78.5826 6.55469 78.4632 6.76065C78.3453 6.9652 78.1713 7.12358 77.9412 7.2358C77.7111 7.34659 77.4284 7.40199 77.0932 7.40199H75.9277V6.74574H76.9867C77.1827 6.74574 77.3432 6.71875 77.4682 6.66477C77.5932 6.60937 77.6855 6.52912 77.7452 6.42401C77.8063 6.31747 77.8368 6.18679 77.8368 6.03196C77.8368 5.87713 77.8063 5.74503 77.7452 5.63565C77.6841 5.52486 77.5911 5.44105 77.4661 5.38423C77.3411 5.32599 77.1799 5.29688 76.9824 5.29688H76.258V9H75.4675ZM77.7218 7.02273L78.802 9H77.9199L76.8588 7.02273H77.7218ZM79.3358 10.2273V5.72727H80.0943V6.26847H80.139C80.1788 6.18892 80.2349 6.1044 80.3074 6.01491C80.3798 5.92401 80.4778 5.84659 80.6014 5.78267C80.725 5.71733 80.8826 5.68466 81.0744 5.68466C81.3272 5.68466 81.5552 5.74929 81.7583 5.87855C81.9629 6.00639 82.1248 6.19602 82.2441 6.44744C82.3649 6.69744 82.4252 7.00426 82.4252 7.3679C82.4252 7.72727 82.3663 8.03267 82.2484 8.28409C82.1305 8.53551 81.97 8.72727 81.7669 8.85938C81.5637 8.99148 81.3336 9.05753 81.0765 9.05753C80.889 9.05753 80.7335 9.02628 80.6099 8.96378C80.4863 8.90128 80.3869 8.82599 80.3116 8.73793C80.2377 8.64844 80.1802 8.56392 80.139 8.48438H80.1071V10.2273H79.3358ZM80.0922 7.36364C80.0922 7.57528 80.122 7.76065 80.1816 7.91974C80.2427 8.07884 80.3301 8.20312 80.4437 8.29261C80.5588 8.38068 80.698 8.42472 80.8613 8.42472C81.0318 8.42472 81.1745 8.37926 81.2896 8.28835C81.4047 8.19602 81.4913 8.07031 81.5495 7.91122C81.6092 7.75071 81.639 7.56818 81.639 7.36364C81.639 7.16051 81.6099 6.98011 81.5517 6.82244C81.4934 6.66477 81.4068 6.54119 81.2917 6.4517C81.1767 6.36222 81.0332 6.31747 80.8613 6.31747C80.6966 6.31747 80.5566 6.3608 80.4416 6.44744C80.3265 6.53409 80.2392 6.65554 80.1795 6.81179C80.1213 6.96804 80.0922 7.15199 80.0922 7.36364ZM83.5609 9.04688C83.4316 9.04688 83.3208 9.00142 83.2285 8.91051C83.1362 8.8196 83.0907 8.70881 83.0922 8.57812C83.0907 8.45028 83.1362 8.34091 83.2285 8.25C83.3208 8.15909 83.4316 8.11364 83.5609 8.11364C83.6859 8.11364 83.7946 8.15909 83.8869 8.25C83.9806 8.34091 84.0282 8.45028 84.0297 8.57812C84.0282 8.66477 84.0055 8.74361 83.9615 8.81463C83.9189 8.88565 83.862 8.94247 83.791 8.98509C83.7214 9.02628 83.6447 9.04688 83.5609 9.04688ZM86.2456 9.05966C86.0368 9.05824 85.8329 9.02202 85.6341 8.95099C85.4352 8.87855 85.2562 8.76136 85.0971 8.59943C84.938 8.43608 84.8116 8.21946 84.7179 7.94957C84.6241 7.67827 84.5779 7.34233 84.5794 6.94176C84.5794 6.56818 84.6191 6.23509 84.6987 5.94247C84.7782 5.64986 84.8926 5.4027 85.0417 5.20099C85.1909 4.99787 85.3706 4.84304 85.5808 4.73651C85.7924 4.62997 86.0289 4.5767 86.2903 4.5767C86.5645 4.5767 86.8074 4.63068 87.019 4.73864C87.2321 4.84659 87.4039 4.99432 87.5346 5.18182C87.6653 5.3679 87.7463 5.57812 87.7775 5.8125H86.9998C86.96 5.64489 86.8784 5.51136 86.7548 5.41193C86.6326 5.31108 86.4778 5.26065 86.2903 5.26065C85.9877 5.26065 85.7548 5.39205 85.5914 5.65483C85.4295 5.91761 85.3478 6.27841 85.3464 6.73722H85.3762C85.4458 6.61222 85.536 6.50497 85.6468 6.41548C85.7576 6.32599 85.8826 6.2571 86.0218 6.20881C86.1625 6.15909 86.3109 6.13423 86.4672 6.13423C86.7228 6.13423 86.9522 6.19531 87.1554 6.31747C87.3599 6.43963 87.5218 6.60795 87.6412 6.82244C87.7605 7.03551 87.8194 7.27983 87.818 7.5554C87.8194 7.84233 87.7541 8.10014 87.622 8.32884C87.4899 8.55611 87.3059 8.73509 87.0701 8.86577C86.8343 8.99645 86.5595 9.06108 86.2456 9.05966ZM86.2413 8.42045C86.3961 8.42045 86.5346 8.38281 86.6568 8.30753C86.7789 8.23224 86.8755 8.13068 86.9466 8.00284C87.0176 7.875 87.0524 7.73153 87.051 7.57244C87.0524 7.41619 87.0183 7.27486 86.9487 7.14844C86.8805 7.02202 86.786 6.92187 86.6653 6.84801C86.5446 6.77415 86.4068 6.73722 86.252 6.73722C86.1369 6.73722 86.0297 6.75923 85.9302 6.80327C85.8308 6.8473 85.7441 6.90838 85.6703 6.98651C85.5964 7.06321 85.5382 7.1527 85.4956 7.25497C85.4544 7.35582 85.4331 7.46378 85.4316 7.57884C85.4331 7.73082 85.4686 7.87074 85.5382 7.99858C85.6078 8.12642 85.7037 8.22869 85.8258 8.3054C85.948 8.3821 86.0865 8.42045 86.2413 8.42045ZM90.0552 9.05966C89.7711 9.05966 89.5169 9.00639 89.2924 8.89986C89.068 8.7919 88.8897 8.64418 88.7576 8.45668C88.627 8.26918 88.5574 8.05469 88.5488 7.81321H89.3159C89.3301 7.99219 89.4075 8.13849 89.5481 8.25213C89.6887 8.36435 89.8578 8.42045 90.0552 8.42045C90.21 8.42045 90.3478 8.38494 90.4686 8.31392C90.5893 8.2429 90.6845 8.14418 90.7541 8.01776C90.8237 7.89134 90.8578 7.74716 90.8564 7.58523C90.8578 7.42045 90.823 7.27415 90.752 7.14631C90.6809 7.01847 90.5836 6.91832 90.46 6.84588C90.3365 6.77202 90.1944 6.73509 90.0339 6.73509C89.9032 6.73366 89.7747 6.75781 89.6483 6.80753C89.5218 6.85724 89.4217 6.92259 89.3478 7.00355L88.6341 6.88636L88.862 4.63636H91.3933V5.29688H89.5162L89.3904 6.45384H89.416C89.497 6.35866 89.6113 6.27983 89.7591 6.21733C89.9068 6.15341 90.0687 6.12145 90.2449 6.12145C90.5091 6.12145 90.7449 6.18395 90.9522 6.30895C91.1596 6.43253 91.323 6.60298 91.4423 6.82031C91.5616 7.03764 91.6213 7.28622 91.6213 7.56605C91.6213 7.8544 91.5545 8.11151 91.421 8.33736C91.2889 8.56179 91.1049 8.73864 90.8691 8.8679C90.6348 8.99574 90.3635 9.05966 90.0552 9.05966ZM92.6722 9.04688C92.543 9.04688 92.4322 9.00142 92.3398 8.91051C92.2475 8.8196 92.2021 8.70881 92.2035 8.57812C92.2021 8.45028 92.2475 8.34091 92.3398 8.25C92.4322 8.15909 92.543 8.11364 92.6722 8.11364C92.7972 8.11364 92.9059 8.15909 92.9982 8.25C93.092 8.34091 93.1396 8.45028 93.141 8.57812C93.1396 8.66477 93.1168 8.74361 93.0728 8.81463C93.0302 8.88565 92.9734 8.94247 92.9023 8.98509C92.8327 9.02628 92.756 9.04688 92.6722 9.04688ZM95.3718 9.0831C95.021 9.0831 94.7198 8.99432 94.4684 8.81676C94.2184 8.63778 94.0259 8.37997 93.891 8.04332C93.7575 7.70526 93.6907 7.2983 93.6907 6.82244C93.6921 6.34659 93.7596 5.94176 93.8931 5.60795C94.0281 5.27273 94.2205 5.01705 94.4705 4.84091C94.7219 4.66477 95.0224 4.5767 95.3718 4.5767C95.7212 4.5767 96.0217 4.66477 96.2731 4.84091C96.5245 5.01705 96.717 5.27273 96.8505 5.60795C96.9854 5.94318 97.0529 6.34801 97.0529 6.82244C97.0529 7.29972 96.9854 7.70739 96.8505 8.04545C96.717 8.3821 96.5245 8.6392 96.2731 8.81676C96.0231 8.99432 95.7227 9.0831 95.3718 9.0831ZM95.3718 8.41619C95.6445 8.41619 95.8597 8.28196 96.0174 8.01349C96.1765 7.74361 96.256 7.34659 96.256 6.82244C96.256 6.47585 96.2198 6.18466 96.1474 5.94886C96.0749 5.71307 95.9727 5.53551 95.8406 5.41619C95.7085 5.29545 95.5522 5.23509 95.3718 5.23509C95.1005 5.23509 94.886 5.37003 94.7283 5.63991C94.5707 5.90838 94.4911 6.30256 94.4897 6.82244C94.4883 7.17045 94.5231 7.46307 94.5941 7.70028C94.6665 7.9375 94.7688 8.11648 94.9009 8.23722C95.033 8.35653 95.19 8.41619 95.3718 8.41619ZM99.3738 9.0831C99.0229 9.0831 98.7218 8.99432 98.4703 8.81676C98.2203 8.63778 98.0279 8.37997 97.8929 8.04332C97.7594 7.70526 97.6926 7.2983 97.6926 6.82244C97.6941 6.34659 97.7615 5.94176 97.8951 5.60795C98.03 5.27273 98.2225 5.01705 98.4725 4.84091C98.7239 4.66477 99.0243 4.5767 99.3738 4.5767C99.7232 4.5767 100.024 4.66477 100.275 4.84091C100.526 5.01705 100.719 5.27273 100.852 5.60795C100.987 5.94318 101.055 6.34801 101.055 6.82244C101.055 7.29972 100.987 7.70739 100.852 8.04545C100.719 8.3821 100.526 8.6392 100.275 8.81676C100.025 8.99432 99.7246 9.0831 99.3738 9.0831ZM99.3738 8.41619C99.6465 8.41619 99.8617 8.28196 100.019 8.01349C100.178 7.74361 100.258 7.34659 100.258 6.82244C100.258 6.47585 100.222 6.18466 100.149 5.94886C100.077 5.71307 99.9746 5.53551 99.8425 5.41619C99.7104 5.29545 99.5542 5.23509 99.3738 5.23509C99.1025 5.23509 98.888 5.37003 98.7303 5.63991C98.5726 5.90838 98.4931 6.30256 98.4917 6.82244C98.4902 7.17045 98.525 7.46307 98.5961 7.70028C98.6685 7.9375 98.7708 8.11648 98.9029 8.23722C99.035 8.35653 99.1919 8.41619 99.3738 8.41619ZM103.376 9.0831C103.025 9.0831 102.724 8.99432 102.472 8.81676C102.222 8.63778 102.03 8.37997 101.895 8.04332C101.761 7.70526 101.695 7.2983 101.695 6.82244C101.696 6.34659 101.763 5.94176 101.897 5.60795C102.032 5.27273 102.224 5.01705 102.474 4.84091C102.726 4.66477 103.026 4.5767 103.376 4.5767C103.725 4.5767 104.026 4.66477 104.277 4.84091C104.528 5.01705 104.721 5.27273 104.854 5.60795C104.989 5.94318 105.057 6.34801 105.057 6.82244C105.057 7.29972 104.989 7.70739 104.854 8.04545C104.721 8.3821 104.528 8.6392 104.277 8.81676C104.027 8.99432 103.727 9.0831 103.376 9.0831ZM103.376 8.41619C103.648 8.41619 103.864 8.28196 104.021 8.01349C104.18 7.74361 104.26 7.34659 104.26 6.82244C104.26 6.47585 104.224 6.18466 104.151 5.94886C104.079 5.71307 103.977 5.53551 103.844 5.41619C103.712 5.29545 103.556 5.23509 103.376 5.23509C103.104 5.23509 102.89 5.37003 102.732 5.63991C102.575 5.90838 102.495 6.30256 102.494 6.82244C102.492 7.17045 102.527 7.46307 102.598 7.70028C102.67 7.9375 102.773 8.11648 102.905 8.23722C103.037 8.35653 103.194 8.41619 103.376 8.41619Z" fill="#3EAF09"/>
</svg>
